<?xml version="1.0" standalone="no"?>
<!DOCTYPE svg PUBLIC "-//W3C//DTD SVG 20010904//EN"
 "http://www.w3.org/TR/2001/REC-SVG-20010904/DTD/svg10.dtd">
<svg version="1.0" xmlns="http://www.w3.org/2000/svg"
 width="97.000000pt" height="97.000000pt" viewBox="0 0 97.000000 97.000000"
 preserveAspectRatio="xMidYMid meet">
<metadata>
Created by potrace 1.14, written by Peter Selinger 2001-2017
</metadata>
<g transform="translate(0.000000,97.000000) scale(0.100000,-0.100000)"
fill="#000000" stroke="none">
<path d="M430 832 c-30 -30 -66 -132 -75 -212 -6 -63 -7 -216 0 -275 14 -125
71 -245 115 -245 19 0 70 57 70 78 0 7 7 12 15 12 8 0 15 -6 15 -13 0 -8 11
-20 25 -27 52 -28 98 33 122 161 9 52 9 291 -1 334 -3 17 -9 41 -12 55 -8 38
-36 94 -54 107 -23 19 -39 15 -70 -15 l-28 -29 -13 26 c-19 37 -50 71 -67 71
-7 0 -26 -13 -42 -28z m104 -84 c9 -9 11 -21 5 -38 -22 -69 -35 -334 -19 -388
28 -89 29 -102 9 -113 -51 -27 -100 106 -100 271 0 47 2 93 5 101 3 8 7 30 10
50 8 51 22 85 46 109 23 23 27 24 44 8z m146 -107 c7 -14 16 -33 20 -42 5 -9
8 -65 7 -125 -2 -84 -6 -118 -21 -146 -10 -21 -22 -38 -26 -38 -30 0 -61 91
-61 177 0 149 47 249 81 174z"/>
<path d="M304 786 c-59 -40 -106 -91 -135 -148 -29 -57 -34 -82 -34 -168 1
-60 6 -86 28 -131 38 -78 119 -160 181 -183 17 -6 17 -5 5 11 -8 10 -17 20
-20 23 -12 10 -51 94 -69 148 -13 40 -17 80 -16 160 3 123 24 192 83 268 19
25 33 48 31 50 -2 2 -27 -12 -54 -30z"/>
<path d="M770 554 c-21 -62 -13 -141 15 -164 19 -16 35 18 39 83 4 92 -32 147
-54 81z"/>
</g>
</svg>
